<svg width="50" height="53" viewBox="0 0 50 53" fill="none" xmlns="http://www.w3.org/2000/svg">
<path d="M44.7368 49.022C45.0858 49.022 45.4205 48.8825 45.6672 48.634C45.914 48.3855 46.0526 48.0485 46.0526 47.6971V21.1987H34.2105C32.8146 21.1987 31.4759 20.6404 30.4889 19.6465C29.5019 18.6526 28.9474 17.3046 28.9474 15.899V3.97476H13.1579C12.8089 3.97476 12.4742 4.11435 12.2275 4.36282C11.9807 4.61129 11.8421 4.94829 11.8421 5.29968V33.4595C10.6655 32.6344 9.31385 32.0972 7.89474 31.8908V5.29968C7.89474 3.89412 8.44925 2.54612 9.43628 1.55224C10.4233 0.558357 11.762 0 13.1579 0H29.4C29.4737 0.00176656 29.5456 0.00794944 29.6158 0.0185488C29.6684 0.0273816 29.7202 0.0335645 29.771 0.0370976C30.3368 0.0768452 30.8947 0.185489 31.4132 0.402776C31.5632 0.466372 31.7079 0.551167 31.85 0.633312L31.9816 0.710157L32.1053 0.773754C32.1781 0.809298 32.2492 0.848203 32.3184 0.890346C32.5237 1.03079 32.7079 1.19773 32.8947 1.36732L32.9895 1.44681L33.1184 1.55281L48.4579 16.9961C49.445 17.9897 49.9997 19.3375 50 20.743V47.6971C50 49.1027 49.4455 50.4507 48.4585 51.4446C47.4714 52.4384 46.1327 52.9968 44.7368 52.9968H40.1684C41.1497 51.8775 41.791 50.4978 42.0158 49.022H44.7368ZM43.1 17.224L32.8947 6.94523V15.899C32.8947 16.2504 33.0334 16.5874 33.2801 16.8359C33.5269 17.0844 33.8616 17.224 34.2105 17.224H43.1ZM29.0842 49.022C29.6184 51.3009 31.6526 52.9968 34.0789 52.9968H34.3421C35.016 52.9968 35.6833 52.8632 36.3059 52.6035C36.9285 52.3438 37.4942 51.9632 37.9707 51.4834C38.4472 51.0036 38.8252 50.4339 39.0831 49.807C39.341 49.1801 39.4737 48.5082 39.4737 47.8296V47.2096C39.4733 46.409 39.2671 45.6221 38.8751 44.9256C38.4831 44.229 37.9187 43.6465 37.2368 43.2348L33.2132 40.8022C33.1161 40.7434 33.0357 40.6602 32.9799 40.5608C32.9242 40.4615 32.8948 40.3493 32.8947 40.2352V39.6151C32.8947 39.2989 33.0195 38.9956 33.2416 38.7719C33.4637 38.5483 33.7649 38.4227 34.0789 38.4227H34.3421C34.6562 38.4227 34.9574 38.5483 35.1795 38.7719C35.4016 38.9956 35.5263 39.2989 35.5263 39.6151V39.7476C35.5263 40.2747 35.7343 40.7802 36.1044 41.1529C36.4745 41.5256 36.9765 41.735 37.5 41.735C38.0235 41.735 38.5255 41.5256 38.8956 41.1529C39.2657 40.7802 39.4737 40.2747 39.4737 39.7476V39.6151C39.4737 38.2447 38.933 36.9304 37.9707 35.9614C37.0083 34.9923 35.7031 34.4479 34.3421 34.4479H34.0789C32.718 34.4479 31.4127 34.9923 30.4504 35.9614C29.488 36.9304 28.9474 38.2447 28.9474 39.6151V40.2352C28.9474 41.8622 29.7947 43.3726 31.1842 44.2099L35.2079 46.6425C35.305 46.7014 35.3853 46.7845 35.4411 46.8839C35.4969 46.9832 35.5262 47.0954 35.5263 47.2096V47.8296C35.5263 48.1459 35.4016 48.4492 35.1795 48.6728C34.9574 48.8964 34.6562 49.022 34.3421 49.022H34.0789C33.7649 49.022 33.4637 48.8964 33.2416 48.6728C33.0195 48.4492 32.8947 48.1459 32.8947 47.8296V47.6971C32.8947 47.17 32.6868 46.6645 32.3167 46.2918C31.9465 45.9191 31.4445 45.7097 30.9211 45.7097C30.3976 45.7097 29.8956 45.9191 29.5254 46.2918C29.1553 46.6645 28.9474 47.17 28.9474 47.6971V47.8296C28.9474 48.2412 28.993 48.6387 29.0842 49.022ZM13.0263 52.9968L13.1579 52.8643V52.9968H13.0263ZM16.4395 50.347C16.0121 49.5778 15.7883 48.711 15.7895 47.8296V47.6971C15.7895 47.17 15.9974 46.6645 16.3676 46.2918C16.7377 45.9191 17.2397 45.7097 17.7632 45.7097C18.2866 45.7097 18.7886 45.9191 19.1588 46.2918C19.5289 46.6645 19.7368 47.17 19.7368 47.6971V47.8296C19.7368 48.4868 20.2658 49.022 20.9211 49.022H21.1842C21.4983 49.022 21.7995 48.8964 22.0216 48.6728C22.2437 48.4492 22.3684 48.1459 22.3684 47.8296V47.2096C22.3684 47.0954 22.339 46.9832 22.2832 46.8839C22.2274 46.7845 22.1471 46.7014 22.05 46.6425L18.0237 44.2099C17.3423 43.7979 16.7784 43.2152 16.3869 42.5187C15.9954 41.8222 15.7896 41.0355 15.7895 40.2352V39.6151C15.7895 38.9366 15.9222 38.2646 16.1801 37.6377C16.438 37.0108 16.816 36.4412 17.2925 35.9614C17.769 35.4815 18.3347 35.1009 18.9573 34.8413C19.5799 34.5816 20.2472 34.4479 20.9211 34.4479H21.1842C22.5452 34.4479 23.8504 34.9923 24.8128 35.9614C25.7751 36.9304 26.3158 38.2447 26.3158 39.6151V39.7476C26.3158 40.2747 26.1078 40.7802 25.7377 41.1529C25.3676 41.5256 24.8656 41.735 24.3421 41.735C23.8186 41.735 23.3166 41.5256 22.9465 41.1529C22.5764 40.7802 22.3684 40.2747 22.3684 39.7476V39.6151C22.3684 39.2989 22.2437 38.9956 22.0216 38.7719C21.7995 38.5483 21.4983 38.4227 21.1842 38.4227H20.9211C20.607 38.4227 20.3058 38.5483 20.0837 38.7719C19.8616 38.9956 19.7368 39.2989 19.7368 39.6151V40.2352C19.7369 40.3493 19.7663 40.4615 19.822 40.5608C19.8778 40.6602 19.9582 40.7434 20.0553 40.8022L24.0816 43.2348C25.4684 44.0721 26.3158 45.5826 26.3158 47.2096V47.8296C26.3147 48.7107 26.091 49.577 25.6658 50.347C25.2207 51.1504 24.5706 51.8196 23.7828 52.2854C22.9949 52.7512 22.0978 52.9968 21.1842 52.9968H20.9211C20.0074 52.9968 19.1103 52.7512 18.3225 52.2854C17.5346 51.8196 16.8846 51.1504 16.4395 50.347ZM12.6526 48.9214C12.9789 48.137 13.1579 47.2758 13.1579 46.3722C13.1579 45.8451 12.95 45.3396 12.5798 44.9669C12.2097 44.5942 11.7077 44.3848 11.1842 44.3848C10.6608 44.3848 10.1587 44.5942 9.7886 44.9669C9.41847 45.3396 9.21053 45.8451 9.21053 46.3722C9.21053 47.075 8.93327 47.749 8.43975 48.2459C7.94624 48.7429 7.27689 49.022 6.57895 49.022C5.88101 49.022 5.21166 48.7429 4.71814 48.2459C4.22462 47.749 3.94737 47.075 3.94737 46.3722V41.0725C3.94737 40.3697 4.22462 39.6957 4.71814 39.1988C5.21166 38.7019 5.88101 38.4227 6.57895 38.4227C7.27689 38.4227 7.94624 38.7019 8.43975 39.1988C8.93327 39.6957 9.21053 40.3697 9.21053 41.0725C9.21404 41.4382 9.30175 41.7694 9.47368 42.0662C9.69064 42.4457 10.026 42.7425 10.4277 42.9103C10.8293 43.0782 11.2748 43.1077 11.6949 42.9944C12.1149 42.8811 12.4861 42.6313 12.7507 42.2838C13.0152 41.9362 13.1584 41.5104 13.1579 41.0725C13.1579 39.3156 12.4648 37.6306 11.231 36.3882C9.99717 35.1459 8.32379 34.4479 6.57895 34.4479C4.8341 34.4479 3.16072 35.1459 1.92693 36.3882C0.693138 37.6306 7.59836e-07 39.3156 7.59836e-07 41.0725V46.3722C-0.00073011 47.9041 0.525816 49.3889 1.49 50.5739C2.45419 51.7588 3.79642 52.5707 5.28819 52.8712C6.77997 53.1718 8.32909 52.9425 9.67183 52.2223C11.0146 51.5021 12.0679 50.3356 12.6526 48.9214Z" fill="black"/>
</svg>
