<svg width="46" height="55" viewBox="0 0 46 55" fill="none" xmlns="http://www.w3.org/2000/svg">
<path fill-rule="evenodd" clip-rule="evenodd" d="M23.5446 4.56533C22.5604 4.36943 21.2168 4.35436 18.7948 4.35436C14.6933 4.35436 11.7772 4.35938 9.56917 4.70598C7.40397 5.04505 6.1609 5.68552 5.25588 6.74543C4.35086 7.80533 3.80743 9.26459 3.51859 11.7913C3.22333 14.3732 3.21906 17.774 3.21906 22.5662V32.6127C3.21906 37.3998 3.22333 40.8006 3.51859 43.3825C3.80743 45.9092 4.35086 47.366 5.25588 48.4309C6.1609 49.4908 7.40183 50.1288 9.55419 50.4678C11.7536 50.817 14.6505 50.8195 18.7306 50.8195H27.2887C31.3688 50.8195 34.2679 50.8145 36.4673 50.4678C38.6175 50.1288 39.8584 49.4908 40.7635 48.4284C41.6685 47.366 42.2119 45.9092 42.5008 43.3825C42.796 40.8031 42.8003 37.3998 42.8003 32.6102V31.5126C42.8003 27.6547 42.7789 25.8263 42.428 24.4474H35.7313C33.3072 24.4474 31.3282 24.4474 29.762 24.2012C28.1296 23.9425 26.7132 23.385 25.5814 22.0563C24.4496 20.7277 23.9746 19.0675 23.7542 17.1461C23.5446 15.3126 23.5446 12.9868 23.5446 10.1386V4.56533ZM26.7538 6.51436V10.0055C26.7538 13.0195 26.7581 15.0891 26.9357 16.6438C27.1069 18.1457 27.415 18.8816 27.8514 19.3915C28.2879 19.9013 28.9126 20.2655 30.1921 20.4664C31.5164 20.6749 33.2794 20.6799 35.8468 20.6799H40.1687C39.3476 19.7622 38.513 18.8613 37.6654 17.9774L29.195 9.0285C28.396 8.17094 27.5821 7.33272 26.7538 6.51436ZM19.105 0.586914C22.0683 0.586914 23.9832 0.586914 25.744 1.37808C27.5048 2.17175 28.9212 3.66868 31.1142 5.98691L31.3431 6.22803L39.8114 15.177L40.0788 15.4583C42.612 18.1331 44.2509 19.8637 45.1302 22.1844C46.0096 24.5051 46.0117 27.0921 46.0096 31.0906V32.7508C46.0096 37.3672 46.0096 41.0241 45.6822 43.8849C45.3442 46.8285 44.6339 49.212 43.0335 51.0932C41.431 52.9719 39.4006 53.8058 36.8931 54.2026C34.454 54.5869 31.341 54.5869 27.4085 54.5869H18.6108C14.6784 54.5869 11.5632 54.5869 9.12629 54.2026C6.61876 53.8058 4.58835 52.9719 2.98585 51.0932C1.38548 49.212 0.675158 46.8285 0.337113 43.8849C0.00976562 41.0216 0.00976562 37.3672 0.00976562 32.7508V22.4255C0.00976562 17.8091 0.00976562 14.1522 0.337113 11.2915C0.675158 8.34784 1.38548 5.96431 2.98585 4.0831C4.59049 2.20189 6.62518 1.37054 9.1434 0.973705C11.591 0.589426 14.7211 0.589426 18.675 0.589426H19.1072" fill="black"/>
<path fill-rule="evenodd" clip-rule="evenodd" d="M7.42774 26.9235C7.42774 25.5467 8.01389 24.2263 9.05724 23.2528C10.1006 22.2793 11.5157 21.7324 12.9912 21.7324H20.4092C21.4831 21.7324 22.5341 22.0225 23.4353 22.5676C24.3365 23.1127 25.0493 23.8895 25.4878 24.8043C25.9262 25.7191 26.0715 26.7327 25.9061 27.7228C25.7408 28.7129 25.2718 29.6372 24.5558 30.3841C25.3802 31.2432 25.8746 32.3338 25.961 33.4841C26.0474 34.6344 25.7209 35.7788 25.033 36.7367C24.345 37.6946 23.3349 38.4115 22.1618 38.7744C20.9888 39.1372 19.7197 39.1253 18.5547 38.7405V40.7662C18.5547 41.6077 18.3355 42.4365 17.9159 43.1814C17.4964 43.9262 16.889 44.5647 16.1462 45.0419C15.4034 45.5191 14.5474 45.8207 13.652 45.9206C12.7565 46.0206 11.8485 45.9159 11.006 45.6156C10.1636 45.3154 9.41194 44.8285 8.81593 44.197C8.21991 43.5655 7.79737 42.8083 7.58468 41.9906C7.37199 41.1729 7.37554 40.3192 7.59502 39.503C7.8145 38.6868 8.24333 37.9327 8.84457 37.3055C7.93017 36.355 7.42544 35.1221 7.42774 33.8448C7.42774 32.5159 7.96431 31.3024 8.84457 30.3841C7.93017 29.4336 7.42544 28.2007 7.42774 26.9235ZM12.9912 32.1145C12.4994 32.1145 12.0277 32.2968 11.6799 32.6213C11.3321 32.9458 11.1367 33.3859 11.1367 33.8448C11.1367 34.3037 11.3321 34.7439 11.6799 35.0684C12.0277 35.3929 12.4994 35.5752 12.9912 35.5752H14.8457V32.1145H12.9912ZM14.8457 28.6538H12.9912C12.4994 28.6538 12.0277 28.4715 11.6799 28.147C11.3321 27.8225 11.1367 27.3824 11.1367 26.9235C11.1367 26.4645 11.3321 26.0244 11.6799 25.6999C12.0277 25.3754 12.4994 25.1931 12.9912 25.1931H14.8457V28.6538ZM20.4092 28.6538C20.901 28.6538 21.3727 28.4715 21.7205 28.147C22.0683 27.8225 22.2636 27.3824 22.2636 26.9235C22.2636 26.4645 22.0683 26.0244 21.7205 25.6999C21.3727 25.3754 20.901 25.1931 20.4092 25.1931H18.5547V28.6538H20.4092ZM20.4092 32.1145C19.9173 32.1145 19.4456 32.2968 19.0978 32.6213C18.7501 32.9458 18.5547 33.3859 18.5547 33.8448C18.5547 34.3037 18.7501 34.7439 19.0978 35.0684C19.4456 35.3929 19.9173 35.5752 20.4092 35.5752C20.901 35.5752 21.3727 35.3929 21.7205 35.0684C22.0683 34.7439 22.2636 34.3037 22.2636 33.8448C22.2636 33.3859 22.0683 32.9458 21.7205 32.6213C21.3727 32.2968 20.901 32.1145 20.4092 32.1145ZM14.8457 39.0359H12.9912C12.6244 39.0359 12.2659 39.1373 11.9609 39.3275C11.6559 39.5176 11.4182 39.7878 11.2779 40.104C11.1375 40.4202 11.1008 40.7681 11.1724 41.1038C11.2439 41.4394 11.4205 41.7477 11.6799 41.9897C11.9392 42.2317 12.2697 42.3965 12.6294 42.4633C12.9891 42.5301 13.362 42.4958 13.7009 42.3648C14.0398 42.2339 14.3294 42.0121 14.5332 41.7275C14.7369 41.443 14.8457 41.1084 14.8457 40.7662V39.0359Z" fill="black"/>
</svg>
