<svg width="50" height="53" viewBox="0 0 50 53" fill="none" xmlns="http://www.w3.org/2000/svg">
<path d="M42.3729 26.5V17.6667C42.3731 17.3766 42.3294 17.0893 42.2443 16.8212C42.1592 16.5531 42.0345 16.3095 41.8771 16.1043L30.0127 0.645938C29.8552 0.440929 29.6682 0.278365 29.4625 0.167533C29.2567 0.0567007 29.0362 -0.000227427 28.8136 6.82813e-07H8.47458C7.57554 6.82813e-07 6.71332 0.465327 6.0776 1.29361C5.44189 2.1219 5.08475 3.24529 5.08475 4.41667V26.5C5.08475 27.0857 5.26332 27.6474 5.58118 28.0615C5.89903 28.4757 6.33014 28.7083 6.77966 28.7083C7.22918 28.7083 7.66029 28.4757 7.97815 28.0615C8.29601 27.6474 8.47458 27.0857 8.47458 26.5V4.41667H27.1186V17.6667C27.1186 18.2524 27.2972 18.8141 27.6151 19.2282C27.9329 19.6423 28.364 19.875 28.8136 19.875H38.9831V26.5C38.9831 27.0857 39.1616 27.6474 39.4795 28.0615C39.7973 28.4757 40.2284 28.7083 40.678 28.7083C41.1275 28.7083 41.5586 28.4757 41.8765 28.0615C42.1943 27.6474 42.3729 27.0857 42.3729 26.5ZM30.5085 7.5387L36.5869 15.4583H30.5085V7.5387ZM11.0169 37.5417V50.7917C11.0169 51.3774 10.8384 51.9391 10.5205 52.3532C10.2027 52.7673 9.77155 53 9.32203 53C8.87251 53 8.44141 52.7673 8.12355 52.3532C7.80569 51.9391 7.62712 51.3774 7.62712 50.7917V46.375H3.38983V50.7917C3.38983 51.3774 3.21126 51.9391 2.8934 52.3532C2.57554 52.7673 2.14443 53 1.69492 53C1.2454 53 0.814287 52.7673 0.496429 52.3532C0.178571 51.9391 0 51.3774 0 50.7917V37.5417C0 36.956 0.178571 36.3943 0.496429 35.9801C0.814287 35.566 1.2454 35.3333 1.69492 35.3333C2.14443 35.3333 2.57554 35.566 2.8934 35.9801C3.21126 36.3943 3.38983 36.956 3.38983 37.5417V41.9583H7.62712V37.5417C7.62712 36.956 7.80569 36.3943 8.12355 35.9801C8.44141 35.566 8.87251 35.3333 9.32203 35.3333C9.77155 35.3333 10.2027 35.566 10.5205 35.9801C10.8384 36.3943 11.0169 36.956 11.0169 37.5417ZM22.8814 37.5417C22.8814 38.1274 22.7028 38.6891 22.3849 39.1032C22.0671 39.5173 21.636 39.75 21.1864 39.75H19.4915V50.7917C19.4915 51.3774 19.313 51.9391 18.9951 52.3532C18.6772 52.7673 18.2461 53 17.7966 53C17.3471 53 16.916 52.7673 16.5981 52.3532C16.2803 51.9391 16.1017 51.3774 16.1017 50.7917V39.75H14.4068C13.9573 39.75 13.5262 39.5173 13.2083 39.1032C12.8904 38.6891 12.7119 38.1274 12.7119 37.5417C12.7119 36.956 12.8904 36.3943 13.2083 35.9801C13.5262 35.566 13.9573 35.3333 14.4068 35.3333H21.1864C21.636 35.3333 22.0671 35.566 22.3849 35.9801C22.7028 36.3943 22.8814 36.956 22.8814 37.5417ZM38.1356 37.5417V50.7917C38.1356 51.3774 37.957 51.9391 37.6392 52.3532C37.3213 52.7673 36.8902 53 36.4407 53C35.9912 53 35.56 52.7673 35.2422 52.3532C34.9243 51.9391 34.7458 51.3774 34.7458 50.7917V44.1667L32.7119 47.7C32.554 47.9743 32.3493 48.1969 32.1139 48.3502C31.8786 48.5035 31.6191 48.5833 31.3559 48.5833C31.0928 48.5833 30.8333 48.5035 30.5979 48.3502C30.3626 48.1969 30.1579 47.9743 30 47.7L27.9661 44.1667V50.7917C27.9661 51.3774 27.7875 51.9391 27.4697 52.3532C27.1518 52.7673 26.7207 53 26.2712 53C25.8217 53 25.3906 52.7673 25.0727 52.3532C24.7548 51.9391 24.5763 51.3774 24.5763 50.7917V37.5417C24.5763 37.0782 24.6882 36.6264 24.8962 36.2504C25.1042 35.8744 25.3977 35.5932 25.7352 35.4467C26.0727 35.3001 26.437 35.2956 26.7766 35.4338C27.1161 35.572 27.4137 35.8459 27.6271 36.2167L31.3559 42.6954L35.0847 36.2167C35.2982 35.8459 35.5958 35.572 35.9353 35.4338C36.2749 35.2956 36.6392 35.3001 36.9767 35.4467C37.3141 35.5932 37.6077 35.8744 37.8157 36.2504C38.0237 36.6264 38.1356 37.0782 38.1356 37.5417ZM50 50.7917C50 51.3774 49.8214 51.9391 49.5036 52.3532C49.1857 52.7673 48.7546 53 48.3051 53H42.3729C41.9234 53 41.4923 52.7673 41.1744 52.3532C40.8565 51.9391 40.678 51.3774 40.678 50.7917V37.5417C40.678 36.956 40.8565 36.3943 41.1744 35.9801C41.4923 35.566 41.9234 35.3333 42.3729 35.3333C42.8224 35.3333 43.2535 35.566 43.5714 35.9801C43.8892 36.3943 44.0678 36.956 44.0678 37.5417V48.5833H48.3051C48.7546 48.5833 49.1857 48.816 49.5036 49.2301C49.8214 49.6443 50 50.206 50 50.7917Z" fill="black"/>
</svg>
