<svg width="50" height="53" viewBox="0 0 50 53" fill="none" xmlns="http://www.w3.org/2000/svg">
<path d="M44.7368 49.025H26.2263C26.0015 50.5009 25.3603 51.8806 24.3789 53H44.7368C46.1327 53 47.4714 52.4416 48.4585 51.4477C49.4455 50.4537 50 49.1056 50 47.7V20.7442C49.9997 19.3387 49.445 17.9908 48.4579 16.9971L33.1184 1.5529L32.9895 1.4469L32.8947 1.3674C32.7141 1.19487 32.5215 1.03547 32.3184 0.8904C32.25 0.848326 32.1798 0.809419 32.1079 0.7738L31.9816 0.7102L31.85 0.63335C31.7079 0.5512 31.5632 0.4664 31.4132 0.4028C30.8888 0.193054 30.3343 0.0695777 29.7711 0.0370998C29.7184 0.0335665 29.6667 0.0273833 29.6158 0.0185499L29.4 0H13.1579C11.762 0 10.4233 0.558391 9.43628 1.55233C8.44925 2.54628 7.89474 3.89435 7.89474 5.3V31.8477C8.11053 31.8159 8.32982 31.8 8.55263 31.8C9.84211 31.8 11.0053 32.3326 11.8421 33.1912V5.3C11.8421 4.94859 11.9807 4.61157 12.2275 4.36308C12.4743 4.1146 12.8089 3.975 13.1579 3.975H28.9474V15.9C28.9474 17.3056 29.5019 18.6537 30.4889 19.6477C31.4759 20.6416 32.8146 21.2 34.2105 21.2H46.0526V47.7C46.0526 48.0514 45.914 48.3884 45.6672 48.6369C45.4205 48.8854 45.0858 49.025 44.7368 49.025ZM43.1 17.225H34.2105C33.8616 17.225 33.5269 17.0854 33.2801 16.8369C33.0334 16.5884 32.8947 16.2514 32.8947 15.9V6.94565L43.1 17.225ZM8.55263 34.45C9.07609 34.45 9.5781 34.6594 9.94824 35.0321C10.3184 35.4049 10.5263 35.9104 10.5263 36.4375V47.7C10.5263 49.1056 9.97181 50.4537 8.98477 51.4477C7.99774 52.4416 6.65903 53 5.26316 53C3.86728 53 2.52858 52.4416 1.54154 51.4477C0.55451 50.4537 0 49.1056 0 47.7V47.0375C7.80007e-09 46.5104 0.207941 46.0049 0.578079 45.6321C0.948216 45.2594 1.45023 45.05 1.97368 45.05C2.49714 45.05 2.99915 45.2594 3.36929 45.6321C3.73943 46.0049 3.94737 46.5104 3.94737 47.0375V47.7C3.94737 48.0514 4.086 48.3884 4.33275 48.6369C4.57951 48.8854 4.91419 49.025 5.26316 49.025C5.61213 49.025 5.9468 48.8854 6.19356 48.6369C6.44032 48.3884 6.57895 48.0514 6.57895 47.7V36.4375C6.57895 35.9104 6.78689 35.4049 7.15703 35.0321C7.52716 34.6594 8.02918 34.45 8.55263 34.45ZM18.2895 34.45C16.9285 34.45 15.6233 34.9944 14.6609 35.9635C13.6985 36.9326 13.1579 38.247 13.1579 39.6175V40.2376C13.1579 41.8647 14.0079 43.3752 15.3947 44.2126L19.4184 46.6453C19.5155 46.7042 19.5958 46.7874 19.6516 46.8867C19.7074 46.9861 19.7368 47.0983 19.7368 47.2124V47.8325C19.7368 48.1488 19.6121 48.4521 19.39 48.6757C19.1679 48.8994 18.8667 49.025 18.5526 49.025H18.2895C17.9754 49.025 17.6742 48.8994 17.4521 48.6757C17.23 48.4521 17.1053 48.1488 17.1053 47.8325V47.7C17.1053 47.1729 16.8973 46.6674 16.5272 46.2946C16.157 45.9219 15.655 45.7125 15.1316 45.7125C14.6081 45.7125 14.1061 45.9219 13.736 46.2946C13.3658 46.6674 13.1579 47.1729 13.1579 47.7V47.8325C13.1579 49.203 13.6985 50.5174 14.6609 51.4865C15.6233 52.4556 16.9285 53 18.2895 53H18.5526C19.9136 53 21.2188 52.4556 22.1812 51.4865C23.1436 50.5174 23.6842 49.203 23.6842 47.8325V47.2124C23.6838 46.4118 23.4776 45.6248 23.0856 44.9283C22.6936 44.2317 22.1292 43.6492 21.4474 43.2374L17.4237 40.8047C17.3266 40.7458 17.2463 40.6626 17.1905 40.5633C17.1347 40.4639 17.1053 40.3517 17.1053 40.2376V39.6175C17.1053 39.3012 17.23 38.9979 17.4521 38.7743C17.6742 38.5506 17.9754 38.425 18.2895 38.425H18.5526C18.8667 38.425 19.1679 38.5506 19.39 38.7743C19.6121 38.9979 19.7368 39.3012 19.7368 39.6175V39.75C19.7368 40.2771 19.9448 40.7826 20.3149 41.1554C20.6851 41.5281 21.1871 41.7375 21.7105 41.7375C22.234 41.7375 22.736 41.5281 23.1061 41.1554C23.4763 40.7826 23.6842 40.2771 23.6842 39.75V39.6175C23.6842 38.247 23.1436 36.9326 22.1812 35.9635C21.2188 34.9944 19.9136 34.45 18.5526 34.45H18.2895Z" fill="black"/>
</svg>
