<svg width="325" height="121" viewBox="0 0 325 121" fill="none" xmlns="http://www.w3.org/2000/svg">
<path d="M6.864 29.312H9.36L13.584 40.064C13.904 40.864 14.24 41.856 14.592 43.04C14.976 44.192 15.232 45.264 15.36 46.256H15.456C15.616 45.2 15.824 44.128 16.08 43.04C16.368 41.92 16.624 40.96 16.848 40.16L19.872 29.312H22.272L16.752 48.8H14.544L6.864 29.312ZM2.976 29.312L13.824 54.8C13.28 56.112 12.72 57.168 12.144 57.968C11.6 58.8 10.944 59.424 10.176 59.84C9.44 60.256 8.496 60.544 7.344 60.704C6.192 60.864 4.736 60.96 2.976 60.992L2.256 58.64C4.336 58.64 5.936 58.56 7.056 58.4C8.208 58.24 9.088 57.888 9.696 57.344C10.304 56.8 10.832 55.952 11.28 54.8L0.528 29.312H2.976ZM28.032 29.312L19.008 56.624C17.92 59.92 16.208 62.256 13.872 63.632C11.536 65.04 8.384 65.744 4.416 65.744L3.744 63.488C5.952 63.456 7.904 63.248 9.6 62.864C11.296 62.48 12.752 61.744 13.968 60.656C15.184 59.6 16.128 58.032 16.8 55.952L25.584 29.312H28.032ZM57.5355 51.728C57.3115 51.76 57.0875 51.792 56.8635 51.824C56.6715 51.824 56.4795 51.824 56.2875 51.824C54.8795 51.824 53.8075 51.456 53.0715 50.72C52.3675 49.984 52.0155 48.976 52.0155 47.696V37.52C52.0155 35.216 51.2315 33.552 49.6635 32.528C48.1275 31.472 45.8395 30.944 42.7995 30.944C40.5595 30.944 38.5755 31.28 36.8475 31.952C35.1515 32.592 33.5995 33.616 32.1915 35.024L31.0875 33.056C32.3995 31.648 34.0155 30.56 35.9355 29.792C37.8875 29.024 40.1755 28.64 42.7995 28.64C46.7035 28.64 49.5995 29.392 51.4875 30.896C53.3755 32.368 54.3195 34.576 54.3195 37.52V47.696C54.3195 48.4 54.5435 48.912 54.9915 49.232C55.4715 49.52 56.0635 49.664 56.7675 49.664C56.9915 49.664 57.1995 49.664 57.3915 49.664C57.6155 49.632 57.8395 49.6 58.0635 49.568L57.5355 51.728ZM56.4315 56.288C55.6315 56.48 54.8155 56.576 53.9835 56.576C52.5755 56.576 51.2955 56.32 50.1435 55.808C48.9915 55.264 48.2715 54.512 47.9835 53.552C47.1195 54.64 45.8555 55.424 44.1915 55.904C42.5595 56.352 40.7995 56.576 38.9115 56.576C36.1915 56.576 34.1115 55.92 32.6715 54.608C31.2635 53.296 30.5435 51.504 30.5115 49.232V49.088C30.5115 46.56 31.2475 44.544 32.7195 43.04C34.2235 41.536 36.5915 40.432 39.8235 39.728C41.5515 39.376 42.9275 38.976 43.9515 38.528C45.0075 38.048 45.5355 37.536 45.5355 36.992C45.5355 36.224 45.2795 35.728 44.7675 35.504C44.2875 35.248 43.3915 35.12 42.0795 35.12C41.3755 35.12 40.5275 35.296 39.5355 35.648C38.5435 35.968 37.5835 36.416 36.6555 36.992C35.7275 37.568 34.9755 38.24 34.3995 39.008L33.1995 36.896C34.5115 35.584 35.9995 34.576 37.6635 33.872C39.3275 33.168 40.7995 32.816 42.0795 32.816C44.4475 32.816 45.9995 33.168 46.7355 33.872C47.4715 34.544 47.8395 35.584 47.8395 36.992C47.8395 37.792 47.1995 38.688 45.9195 39.68C44.6395 40.672 42.7675 41.44 40.3035 41.984C37.7755 42.496 35.8875 43.312 34.6395 44.432C33.4235 45.552 32.8155 47.104 32.8155 49.088V49.184C32.8475 50.816 33.3915 52.08 34.4475 52.976C35.5035 53.872 36.9915 54.32 38.9115 54.32C40.1595 54.32 41.3275 54.256 42.4155 54.128C43.5355 53.968 44.6075 53.6 45.6315 53.024C46.6875 52.416 47.7275 51.456 48.7515 50.144C49.1035 51.904 49.7755 53.072 50.7675 53.648C51.7915 54.192 52.8795 54.464 54.0315 54.464C54.5435 54.464 55.0395 54.432 55.5195 54.368C56.0315 54.304 56.5115 54.24 56.9595 54.176L56.4315 56.288ZM48.0795 47.456C47.8235 48.512 47.3115 49.44 46.5435 50.24C45.8075 51.008 44.9595 51.6 43.9995 52.016C43.0715 52.432 42.1595 52.64 41.2635 52.64C39.5675 52.64 38.3195 52.24 37.5195 51.44C36.7195 50.64 36.3195 49.6 36.3195 48.32C36.3195 46.72 36.7355 45.52 37.5675 44.72C38.4315 43.92 39.6795 43.328 41.3115 42.944C42.0795 42.752 43.0555 42.464 44.2395 42.08C45.4235 41.664 46.7035 40.784 48.0795 39.44V47.456ZM45.7755 43.28C45.0075 43.952 43.7275 44.528 41.9355 45.008C40.7515 45.328 39.9035 45.712 39.3915 46.16C38.8795 46.576 38.6235 47.296 38.6235 48.32C38.6235 49.664 39.5035 50.336 41.2635 50.336C42.1595 50.336 43.0715 50.064 43.9995 49.52C44.9595 48.944 45.5515 48.192 45.7755 47.264V43.28ZM97.389 37.52C97.389 35.632 96.845 34.064 95.757 32.816C94.701 31.568 93.325 30.944 91.629 30.944C89.805 30.944 88.189 31.184 86.781 31.664C85.405 32.112 84.317 33.12 83.517 34.688C82.909 33.312 81.917 32.352 80.541 31.808C79.197 31.232 77.885 30.944 76.605 30.944C75.389 30.944 74.205 31.056 73.053 31.28C71.901 31.504 70.797 32 69.741 32.768C68.685 33.536 67.677 34.768 66.717 36.464V29.264H69.021V31.376C70.109 29.552 72.637 28.64 76.605 28.64C78.269 28.64 79.709 28.976 80.925 29.648C82.173 30.288 83.021 31.12 83.469 32.144C84.109 30.928 85.149 30.048 86.589 29.504C88.029 28.928 89.709 28.64 91.629 28.64C93.197 28.64 94.589 29.024 95.805 29.792C97.021 30.528 97.965 31.568 98.637 32.912C99.341 34.256 99.693 35.792 99.693 37.52V56H97.389V37.52ZM61.389 29.264H63.693V56H61.389V29.264ZM91.293 40.16C91.293 38.752 91.053 37.728 90.573 37.088C90.093 36.416 89.309 36.08 88.221 36.08C87.101 36.08 86.221 36.464 85.581 37.232C84.973 37.968 84.669 38.848 84.669 39.872V56H82.365V39.776C82.365 38.144 82.893 36.736 83.949 35.552C85.005 34.368 86.429 33.776 88.221 33.776C90.013 33.776 91.357 34.272 92.253 35.264C93.149 36.256 93.597 37.888 93.597 40.16V56H91.293V40.16ZM76.317 40.16C76.317 38.784 76.093 37.76 75.645 37.088C75.197 36.416 74.429 36.08 73.341 36.08C72.349 36.08 71.581 36.4 71.037 37.04C70.493 37.68 70.077 38.496 69.789 39.488V56H67.485V39.2C67.997 37.504 68.717 36.176 69.645 35.216C70.573 34.256 71.805 33.776 73.341 33.776C75.133 33.776 76.461 34.272 77.325 35.264C78.189 36.256 78.621 37.888 78.621 40.16V56H76.317V40.16ZM131.786 51.728C131.562 51.76 131.338 51.792 131.114 51.824C130.922 51.824 130.73 51.824 130.538 51.824C129.13 51.824 128.058 51.456 127.322 50.72C126.618 49.984 126.266 48.976 126.266 47.696V37.52C126.266 35.216 125.482 33.552 123.914 32.528C122.378 31.472 120.09 30.944 117.049 30.944C114.81 30.944 112.826 31.28 111.098 31.952C109.402 32.592 107.85 33.616 106.442 35.024L105.338 33.056C106.65 31.648 108.266 30.56 110.186 29.792C112.138 29.024 114.426 28.64 117.049 28.64C120.954 28.64 123.85 29.392 125.738 30.896C127.626 32.368 128.57 34.576 128.57 37.52V47.696C128.57 48.4 128.794 48.912 129.242 49.232C129.722 49.52 130.314 49.664 131.018 49.664C131.242 49.664 131.45 49.664 131.642 49.664C131.866 49.632 132.09 49.6 132.314 49.568L131.786 51.728ZM130.682 56.288C129.882 56.48 129.066 56.576 128.234 56.576C126.826 56.576 125.546 56.32 124.394 55.808C123.242 55.264 122.522 54.512 122.234 53.552C121.37 54.64 120.106 55.424 118.442 55.904C116.81 56.352 115.05 56.576 113.162 56.576C110.442 56.576 108.362 55.92 106.922 54.608C105.514 53.296 104.794 51.504 104.762 49.232V49.088C104.762 46.56 105.498 44.544 106.97 43.04C108.474 41.536 110.842 40.432 114.074 39.728C115.802 39.376 117.178 38.976 118.202 38.528C119.258 38.048 119.786 37.536 119.786 36.992C119.786 36.224 119.53 35.728 119.018 35.504C118.538 35.248 117.642 35.12 116.33 35.12C115.626 35.12 114.778 35.296 113.786 35.648C112.794 35.968 111.834 36.416 110.906 36.992C109.978 37.568 109.226 38.24 108.65 39.008L107.45 36.896C108.762 35.584 110.25 34.576 111.914 33.872C113.578 33.168 115.05 32.816 116.33 32.816C118.698 32.816 120.25 33.168 120.986 33.872C121.722 34.544 122.09 35.584 122.09 36.992C122.09 37.792 121.45 38.688 120.17 39.68C118.89 40.672 117.018 41.44 114.554 41.984C112.026 42.496 110.138 43.312 108.89 44.432C107.674 45.552 107.066 47.104 107.066 49.088V49.184C107.098 50.816 107.642 52.08 108.698 52.976C109.754 53.872 111.242 54.32 113.162 54.32C114.41 54.32 115.578 54.256 116.666 54.128C117.786 53.968 118.858 53.6 119.882 53.024C120.938 52.416 121.978 51.456 123.002 50.144C123.354 51.904 124.026 53.072 125.018 53.648C126.042 54.192 127.13 54.464 128.281 54.464C128.794 54.464 129.29 54.432 129.77 54.368C130.282 54.304 130.762 54.24 131.21 54.176L130.682 56.288ZM122.33 47.456C122.074 48.512 121.562 49.44 120.794 50.24C120.058 51.008 119.21 51.6 118.25 52.016C117.322 52.432 116.41 52.64 115.514 52.64C113.818 52.64 112.57 52.24 111.77 51.44C110.97 50.64 110.57 49.6 110.57 48.32C110.57 46.72 110.986 45.52 111.818 44.72C112.682 43.92 113.93 43.328 115.562 42.944C116.33 42.752 117.306 42.464 118.49 42.08C119.674 41.664 120.954 40.784 122.33 39.44V47.456ZM120.026 43.28C119.258 43.952 117.978 44.528 116.186 45.008C115.002 45.328 114.154 45.712 113.642 46.16C113.13 46.576 112.874 47.296 112.874 48.32C112.874 49.664 113.754 50.336 115.514 50.336C116.41 50.336 117.322 50.064 118.25 49.52C119.21 48.944 119.802 48.192 120.026 47.264V43.28ZM159.303 52.736C157.991 54.016 156.503 54.976 154.839 55.616C153.207 56.256 151.111 56.576 148.551 56.576C146.023 56.576 143.655 56.048 141.447 54.992C139.271 53.936 137.511 52.384 136.167 50.336C134.855 48.256 134.199 45.68 134.199 42.608C134.199 39.76 134.807 37.296 136.023 35.216C137.239 33.104 138.919 31.488 141.063 30.368C143.239 29.216 145.735 28.64 148.551 28.64C150.919 28.64 152.903 28.912 154.503 29.456C156.103 30 157.543 30.784 158.823 31.808L157.959 33.92C156.487 32.8 155.015 32.032 153.543 31.616C152.103 31.168 150.439 30.944 148.551 30.944C146.215 30.944 144.135 31.424 142.311 32.384C140.487 33.312 139.063 34.656 138.039 36.416C137.015 38.144 136.503 40.208 136.503 42.608C136.503 45.168 137.063 47.328 138.183 49.088C139.303 50.816 140.775 52.128 142.599 53.024C144.455 53.888 146.439 54.32 148.551 54.32C150.791 54.32 152.663 54.032 154.167 53.456C155.703 52.88 157.111 51.936 158.391 50.624L159.303 52.736ZM157.671 48.992C156.519 50.144 155.271 50.976 153.927 51.488C152.583 52 151.255 52.256 149.943 52.256C148.279 52.256 146.711 51.92 145.239 51.248C143.799 50.544 142.631 49.472 141.735 48.032C140.839 46.592 140.391 44.784 140.391 42.608C140.391 40.432 140.855 38.656 141.783 37.28C142.711 35.872 143.895 34.832 145.335 34.16C146.775 33.456 148.247 33.104 149.751 33.104C150.967 33.104 152.199 33.328 153.447 33.776C154.727 34.192 155.959 34.912 157.143 35.936L156.183 38.288C155.383 37.296 154.407 36.576 153.255 36.128C152.135 35.648 150.967 35.408 149.751 35.408C148.631 35.408 147.527 35.664 146.439 36.176C145.351 36.688 144.455 37.488 143.751 38.576C143.047 39.632 142.695 40.976 142.695 42.608C142.695 44.272 143.031 45.648 143.703 46.736C144.407 47.824 145.303 48.64 146.391 49.184C147.511 49.696 148.695 49.952 149.943 49.952C151.159 49.952 152.391 49.664 153.639 49.088C154.919 48.512 155.927 47.728 156.663 46.736L157.671 48.992ZM189.161 51.728C188.937 51.76 188.713 51.792 188.489 51.824C188.297 51.824 188.105 51.824 187.913 51.824C186.505 51.824 185.433 51.456 184.697 50.72C183.993 49.984 183.641 48.976 183.641 47.696V37.52C183.641 35.216 182.857 33.552 181.289 32.528C179.753 31.472 177.465 30.944 174.424 30.944C172.185 30.944 170.201 31.28 168.473 31.952C166.777 32.592 165.225 33.616 163.817 35.024L162.713 33.056C164.025 31.648 165.641 30.56 167.561 29.792C169.513 29.024 171.801 28.64 174.424 28.64C178.329 28.64 181.225 29.392 183.113 30.896C185.001 32.368 185.945 34.576 185.945 37.52V47.696C185.945 48.4 186.169 48.912 186.617 49.232C187.097 49.52 187.689 49.664 188.393 49.664C188.617 49.664 188.825 49.664 189.017 49.664C189.241 49.632 189.465 49.6 189.689 49.568L189.161 51.728ZM188.057 56.288C187.257 56.48 186.441 56.576 185.609 56.576C184.201 56.576 182.921 56.32 181.769 55.808C180.617 55.264 179.897 54.512 179.609 53.552C178.745 54.64 177.481 55.424 175.817 55.904C174.185 56.352 172.425 56.576 170.537 56.576C167.817 56.576 165.737 55.92 164.297 54.608C162.889 53.296 162.169 51.504 162.137 49.232V49.088C162.137 46.56 162.873 44.544 164.345 43.04C165.849 41.536 168.217 40.432 171.449 39.728C173.177 39.376 174.553 38.976 175.577 38.528C176.633 38.048 177.161 37.536 177.161 36.992C177.161 36.224 176.905 35.728 176.393 35.504C175.913 35.248 175.017 35.12 173.705 35.12C173.001 35.12 172.153 35.296 171.161 35.648C170.169 35.968 169.209 36.416 168.281 36.992C167.353 37.568 166.601 38.24 166.025 39.008L164.825 36.896C166.137 35.584 167.625 34.576 169.289 33.872C170.953 33.168 172.425 32.816 173.705 32.816C176.073 32.816 177.625 33.168 178.361 33.872C179.097 34.544 179.465 35.584 179.465 36.992C179.465 37.792 178.825 38.688 177.545 39.68C176.265 40.672 174.393 41.44 171.929 41.984C169.401 42.496 167.513 43.312 166.265 44.432C165.049 45.552 164.441 47.104 164.441 49.088V49.184C164.473 50.816 165.017 52.08 166.073 52.976C167.129 53.872 168.617 54.32 170.537 54.32C171.785 54.32 172.953 54.256 174.041 54.128C175.161 53.968 176.233 53.6 177.257 53.024C178.313 52.416 179.353 51.456 180.377 50.144C180.729 51.904 181.401 53.072 182.393 53.648C183.417 54.192 184.505 54.464 185.656 54.464C186.169 54.464 186.665 54.432 187.145 54.368C187.657 54.304 188.137 54.24 188.585 54.176L188.057 56.288ZM179.705 47.456C179.449 48.512 178.937 49.44 178.169 50.24C177.433 51.008 176.585 51.6 175.625 52.016C174.697 52.432 173.785 52.64 172.889 52.64C171.193 52.64 169.945 52.24 169.145 51.44C168.345 50.64 167.945 49.6 167.945 48.32C167.945 46.72 168.361 45.52 169.193 44.72C170.057 43.92 171.305 43.328 172.937 42.944C173.705 42.752 174.681 42.464 175.865 42.08C177.049 41.664 178.329 40.784 179.705 39.44V47.456ZM177.401 43.28C176.633 43.952 175.353 44.528 173.561 45.008C172.377 45.328 171.529 45.712 171.017 46.16C170.505 46.576 170.249 47.296 170.249 48.32C170.249 49.664 171.129 50.336 172.889 50.336C173.785 50.336 174.697 50.064 175.625 49.52C176.585 48.944 177.177 48.192 177.401 47.264V43.28Z" fill="url(#paint0_linear_143_2)" fill-opacity="0.62"/>
<path d="M41.97 98.698C42.89 99.986 43.856 100.967 44.868 101.642C45.88 102.317 46.8767 102.777 47.858 103.022C48.8393 103.267 49.7133 103.39 50.48 103.39C53.24 103.39 55.4787 102.424 57.196 100.492C58.944 98.56 59.818 95.7847 59.818 92.166C59.818 88.5473 58.9593 85.7873 57.242 83.886C55.5247 81.954 53.2553 80.988 50.434 80.988C49.4833 80.988 48.4713 81.1413 47.398 81.448C46.3247 81.724 45.2667 82.2607 44.224 83.058C43.1813 83.8247 42.1847 84.9593 41.234 86.462V79.378H43.442V81.908C44.0247 80.8347 44.9753 80.0527 46.294 79.562C47.6433 79.0407 49.0233 78.78 50.434 78.78C52.7033 78.78 54.712 79.286 56.46 80.298C58.208 81.31 59.5727 82.8127 60.554 84.806C61.5353 86.7993 62.026 89.2527 62.026 92.166C62.026 95.11 61.52 97.5787 60.508 99.572C59.5267 101.535 58.162 103.022 56.414 104.034C54.6967 105.046 52.7187 105.552 50.48 105.552C49.3453 105.552 48.18 105.368 46.984 105C45.788 104.632 44.8527 104.141 44.178 103.528V113.832H41.97V98.698ZM36.128 79.378H38.336V113.878L36.128 113.832V79.378ZM41.832 90.74C41.832 89.2987 42.1387 88.0413 42.752 86.968C43.3653 85.864 44.178 85.0053 45.19 84.392C46.2327 83.7787 47.3827 83.472 48.64 83.472C50.848 83.472 52.6267 84.1773 53.976 85.588C55.356 86.968 56.046 89.1607 56.046 92.166C56.046 94.19 55.7087 95.8613 55.034 97.18C54.39 98.4987 53.5007 99.48 52.366 100.124C51.262 100.768 50.0353 101.09 48.686 101.09C47.0913 101.09 45.7267 100.615 44.592 99.664C43.4573 98.7133 42.5373 97.5633 41.832 96.214V90.74ZM44.04 95.708C44.4387 96.5053 45.0367 97.2413 45.834 97.916C46.6313 98.56 47.582 98.882 48.686 98.882C50.1887 98.882 51.4153 98.33 52.366 97.226C53.3473 96.122 53.838 94.4353 53.838 92.166C53.838 90.0193 53.378 88.4093 52.458 87.336C51.538 86.232 50.2653 85.68 48.64 85.68C47.352 85.68 46.2633 86.1553 45.374 87.106C44.4847 88.0567 44.04 89.268 44.04 90.74V95.708ZM92.4755 92.212C92.4755 94.9107 91.9388 97.2567 90.8655 99.25C89.7922 101.243 88.2435 102.792 86.2195 103.896C84.2262 105 81.8342 105.552 79.0435 105.552C76.2528 105.552 73.8455 105 71.8215 103.896C69.7975 102.792 68.2335 101.243 67.1295 99.25C66.0562 97.2567 65.5195 94.9107 65.5195 92.212C65.5195 89.4827 66.0562 87.1213 67.1295 85.128C68.2335 83.104 69.7975 81.54 71.8215 80.436C73.8455 79.332 76.2528 78.78 79.0435 78.78C81.8342 78.78 84.2262 79.332 86.2195 80.436C88.2435 81.54 89.7922 83.104 90.8655 85.128C91.9388 87.1213 92.4755 89.4827 92.4755 92.212ZM90.2675 92.212C90.2675 89.9427 89.8075 87.9647 88.8875 86.278C87.9982 84.5913 86.7102 83.288 85.0235 82.368C83.3675 81.448 81.3742 80.988 79.0435 80.988C76.7128 80.988 74.7042 81.448 73.0175 82.368C71.3308 83.288 70.0275 84.5913 69.1075 86.278C68.1875 87.9647 67.7275 89.9427 67.7275 92.212C67.7275 94.4507 68.1875 96.4133 69.1075 98.1C70.0275 99.7867 71.3308 101.09 73.0175 102.01C74.7042 102.93 76.7128 103.39 79.0435 103.39C81.3742 103.39 83.3675 102.93 85.0235 102.01C86.7102 101.09 87.9982 99.7867 88.8875 98.1C89.8075 96.4133 90.2675 94.4507 90.2675 92.212ZM79.0435 101.458C76.8355 101.458 75.0262 100.645 73.6155 99.02C72.2048 97.3947 71.4995 95.1253 71.4995 92.212C71.4995 89.2987 72.2048 87.0447 73.6155 85.45C75.0262 83.8247 76.8355 83.012 79.0435 83.012C81.2515 83.012 83.0455 83.8247 84.4255 85.45C85.8055 87.0447 86.4955 89.2987 86.4955 92.212C86.4955 95.1867 85.8055 97.4713 84.4255 99.066C83.0455 100.661 81.2515 101.458 79.0435 101.458ZM79.0435 99.25C80.6688 99.25 81.9415 98.6213 82.8615 97.364C83.8122 96.1067 84.2875 94.3893 84.2875 92.212C84.2875 90.0347 83.8122 88.3327 82.8615 87.106C81.9415 85.8487 80.6688 85.22 79.0435 85.22C77.4182 85.22 76.1148 85.8487 75.1335 87.106C74.1828 88.3327 73.7075 90.0347 73.7075 92.212C73.7075 94.3587 74.1828 96.076 75.1335 97.364C76.1148 98.6213 77.4182 99.25 79.0435 99.25ZM113.641 81.034C111.77 81.034 110.145 81.218 108.765 81.586C107.385 81.954 106.158 82.5827 105.085 83.472C104.011 84.3613 103.015 85.6187 102.095 87.244V79.378H104.303V81.908C105.223 80.804 106.342 80.022 107.661 79.562C109.01 79.0713 110.881 78.8107 113.273 78.78L113.641 81.034ZM97.3565 79.378H99.5645V105H97.3565V79.378ZM103.199 88.21C104.149 86.4007 105.299 85.1127 106.649 84.346C108.029 83.5487 109.792 83.15 111.939 83.15C112.276 83.15 112.613 83.1653 112.951 83.196C113.288 83.196 113.641 83.2113 114.009 83.242L114.423 85.634C113.901 85.5113 113.38 85.4347 112.859 85.404C112.368 85.3427 111.893 85.312 111.433 85.312C108.427 85.312 106.419 86.4467 105.407 88.716V105H103.199V88.21ZM125.656 71.374H127.864V79.378H132.188V81.586H125.656V71.374ZM116.134 79.378H120.182V71.374H122.39V81.586H116.134V79.378ZM133.108 101.182C131.452 101.182 130.118 101.121 129.106 100.998C128.124 100.845 127.373 100.584 126.852 100.216C126.361 99.848 126.039 99.296 125.886 98.56C125.732 97.7933 125.656 96.7813 125.656 95.524V83.38H132.188V85.588H127.864V95.524C127.864 96.628 127.971 97.4253 128.186 97.916C128.431 98.4067 128.952 98.7133 129.75 98.836C130.578 98.928 131.85 98.974 133.568 98.974L133.108 101.182ZM132.142 105.552C129.136 105.552 126.729 105.322 124.92 104.862C123.11 104.371 121.807 103.528 121.009 102.332C120.212 101.105 119.814 99.4187 119.814 97.272V85.588H116.134V83.38H122.022V97.272C122.022 98.9587 122.359 100.247 123.034 101.136C123.708 102.025 124.812 102.623 126.346 102.93C127.91 103.237 129.995 103.405 132.602 103.436L132.142 105.552ZM134.959 80.492H138.479V78.468C138.479 76.444 138.801 74.8013 139.447 73.54C140.121 72.2493 141.309 71.296 143.011 70.68C144.712 70.064 147.117 69.756 150.227 69.756L150.623 71.78C148.129 71.8387 146.149 72.0733 144.683 72.484C143.216 72.8653 142.16 73.5253 141.515 74.464C140.899 75.4027 140.591 76.7373 140.591 78.468V82.604H134.959V80.492ZM143.715 78.644C143.715 77.6173 143.861 76.752 144.155 76.048C144.448 75.344 145.108 74.816 146.135 74.464C147.161 74.0827 148.789 73.8627 151.019 73.804L151.503 76.048C151.297 76.048 151.092 76.048 150.887 76.048C150.681 76.0187 150.476 76.004 150.271 76.004C149.009 76.004 148.056 76.1067 147.411 76.312C146.765 76.488 146.34 76.7667 146.135 77.148C145.929 77.5293 145.827 78.028 145.827 78.644V80.492H150.623V82.604H143.715V78.644ZM144.067 84.32H150.623V86.432H146.179V105H144.067V84.32ZM138.479 86.432H134.959V84.32H140.591V105H138.479V86.432ZM179.89 92.212C179.89 94.9107 179.353 97.2567 178.28 99.25C177.206 101.243 175.658 102.792 173.634 103.896C171.64 105 169.248 105.552 166.458 105.552C163.667 105.552 161.26 105 159.236 103.896C157.212 102.792 155.648 101.243 154.544 99.25C153.47 97.2567 152.934 94.9107 152.934 92.212C152.934 89.4827 153.47 87.1213 154.544 85.128C155.648 83.104 157.212 81.54 159.236 80.436C161.26 79.332 163.667 78.78 166.458 78.78C169.248 78.78 171.64 79.332 173.634 80.436C175.658 81.54 177.206 83.104 178.28 85.128C179.353 87.1213 179.89 89.4827 179.89 92.212ZM177.682 92.212C177.682 89.9427 177.222 87.9647 176.302 86.278C175.412 84.5913 174.124 83.288 172.438 82.368C170.782 81.448 168.788 80.988 166.458 80.988C164.127 80.988 162.118 81.448 160.432 82.368C158.745 83.288 157.442 84.5913 156.522 86.278C155.602 87.9647 155.142 89.9427 155.142 92.212C155.142 94.4507 155.602 96.4133 156.522 98.1C157.442 99.7867 158.745 101.09 160.432 102.01C162.118 102.93 164.127 103.39 166.458 103.39C168.788 103.39 170.782 102.93 172.438 102.01C174.124 101.09 175.412 99.7867 176.302 98.1C177.222 96.4133 177.682 94.4507 177.682 92.212ZM166.458 101.458C164.25 101.458 162.44 100.645 161.03 99.02C159.619 97.3947 158.914 95.1253 158.914 92.212C158.914 89.2987 159.619 87.0447 161.03 85.45C162.44 83.8247 164.25 83.012 166.458 83.012C168.666 83.012 170.46 83.8247 171.84 85.45C173.22 87.0447 173.91 89.2987 173.91 92.212C173.91 95.1867 173.22 97.4713 171.84 99.066C170.46 100.661 168.666 101.458 166.458 101.458ZM166.458 99.25C168.083 99.25 169.356 98.6213 170.276 97.364C171.226 96.1067 171.702 94.3893 171.702 92.212C171.702 90.0347 171.226 88.3327 170.276 87.106C169.356 85.8487 168.083 85.22 166.458 85.22C164.832 85.22 163.529 85.8487 162.548 87.106C161.597 88.3327 161.122 90.0347 161.122 92.212C161.122 94.3587 161.597 96.076 162.548 97.364C163.529 98.6213 164.832 99.25 166.458 99.25ZM190.935 69.12H193.143V105H190.935V69.12ZM184.909 69.12H187.117V105H184.909V69.12ZM205.266 70.68H207.378V77.544H205.266V70.68ZM199.414 70.68H201.526V77.544H199.414V70.68ZM205.178 80.492H207.29V105H205.178V80.492ZM199.546 80.492H201.658V105H199.546V80.492ZM239.091 92.212C239.091 94.9107 238.554 97.2567 237.481 99.25C236.407 101.243 234.859 102.792 232.835 103.896C230.841 105 228.449 105.552 225.659 105.552C222.868 105.552 220.461 105 218.437 103.896C216.413 102.792 214.849 101.243 213.745 99.25C212.671 97.2567 212.135 94.9107 212.135 92.212C212.135 89.4827 212.671 87.1213 213.745 85.128C214.849 83.104 216.413 81.54 218.437 80.436C220.461 79.332 222.868 78.78 225.659 78.78C228.449 78.78 230.841 79.332 232.835 80.436C234.859 81.54 236.407 83.104 237.481 85.128C238.554 87.1213 239.091 89.4827 239.091 92.212ZM236.883 92.212C236.883 89.9427 236.423 87.9647 235.503 86.278C234.613 84.5913 233.325 83.288 231.639 82.368C229.983 81.448 227.989 80.988 225.659 80.988C223.328 80.988 221.319 81.448 219.633 82.368C217.946 83.288 216.643 84.5913 215.723 86.278C214.803 87.9647 214.343 89.9427 214.343 92.212C214.343 94.4507 214.803 96.4133 215.723 98.1C216.643 99.7867 217.946 101.09 219.633 102.01C221.319 102.93 223.328 103.39 225.659 103.39C227.989 103.39 229.983 102.93 231.639 102.01C233.325 101.09 234.613 99.7867 235.503 98.1C236.423 96.4133 236.883 94.4507 236.883 92.212ZM225.659 101.458C223.451 101.458 221.641 100.645 220.231 99.02C218.82 97.3947 218.115 95.1253 218.115 92.212C218.115 89.2987 218.82 87.0447 220.231 85.45C221.641 83.8247 223.451 83.012 225.659 83.012C227.867 83.012 229.661 83.8247 231.041 85.45C232.421 87.0447 233.111 89.2987 233.111 92.212C233.111 95.1867 232.421 97.4713 231.041 99.066C229.661 100.661 227.867 101.458 225.659 101.458ZM225.659 99.25C227.284 99.25 228.557 98.6213 229.477 97.364C230.427 96.1067 230.903 94.3893 230.903 92.212C230.903 90.0347 230.427 88.3327 229.477 87.106C228.557 85.8487 227.284 85.22 225.659 85.22C224.033 85.22 222.73 85.8487 221.749 87.106C220.798 88.3327 220.323 90.0347 220.323 92.212C220.323 94.3587 220.798 96.076 221.749 97.364C222.73 98.6213 224.033 99.25 225.659 99.25Z" fill="url(#paint1_linear_143_2)"/>
<defs>
<linearGradient id="paint0_linear_143_2" x1="-30.5581" y1="95.0848" x2="381.128" y2="93.4177" gradientUnits="userSpaceOnUse">
<stop stop-color="#E746D7"/>
<stop offset="0.6" stop-color="#812778"/>
<stop offset="0.795" stop-color="#812778"/>
</linearGradient>
<linearGradient id="paint1_linear_143_2" x1="33" y1="142.5" x2="325" y2="142.5" gradientUnits="userSpaceOnUse">
<stop stop-color="#DB86D3"/>
<stop offset="1" stop-color="#754871"/>
</linearGradient>
</defs>
</svg>
